<svg t="1713609775402" class="icon" viewBox="0 0 1024 1024" version="1.1" xmlns="http://www.w3.org/2000/svg" p-id="18411" width="200" height="200"><path d="M249.856 896H51.2a51.2 51.2 0 0 1-51.2-51.2v-102.4a51.2 51.2 0 0 1 51.2-51.2h168.6016A203.1104 203.1104 0 0 0 204.8 768a205.2096 205.2096 0 0 0 45.0304 128zM102.4 768a25.6 25.6 0 1 0 25.6 25.6 25.6 25.6 0 0 0-25.6-25.6z m207.9488-179.2H51.2a51.2 51.2 0 0 1-51.2-51.2v-102.4a51.2 51.2 0 0 1 51.2-51.2h537.6a255.36 255.36 0 0 0-68.8384 78.08 166.4 166.4 0 0 0-124.9024 35.3792 166.4 166.4 0 0 0-53.76 77.44 203.776 203.776 0 0 0-30.72 13.9008zM102.4 460.8a25.6 25.6 0 1 0 25.6 25.6 25.6 25.6 0 0 0-25.6-25.6z m716.8-179.2H51.2a51.2 51.2 0 0 1-51.2-51.2V128a51.2 51.2 0 0 1 51.2-51.2h768a51.2 51.2 0 0 1 51.2 51.2v102.4a51.2 51.2 0 0 1-51.2 51.2zM102.4 153.6a25.6 25.6 0 1 0 25.6 25.6 25.6 25.6 0 0 0-25.6-25.6z" fill="#6468E7" opacity=".5" p-id="18412"></path><path d="M870.4 921.6H409.6a153.7536 153.7536 0 0 1-153.6-153.6 153.2928 153.2928 0 0 1 105.7536-145.92 141.3376 141.3376 0 0 1 48.7936-78.592A141.1584 141.1584 0 0 1 499.2 512a141.0816 141.0816 0 0 1 37.376 5.12A204.8 204.8 0 0 1 716.8 409.6a205.0048 205.0048 0 0 1 204.8 204.8c0 3.1744 0 6.016-0.1792 8.6784A153.856 153.856 0 0 1 1024 768a153.7792 153.7792 0 0 1-153.6 153.6z m-352.3072-207.36a19.2 19.2 0 0 0-12.3904 4.5312 19.0976 19.0976 0 0 0-6.7328 13.056 19.0464 19.0464 0 0 0 4.48 14.0032A176.0256 176.0256 0 0 0 640 812.8a180.9408 180.9408 0 0 0 87.6544-22.7584 141.6192 141.6192 0 0 0 56.32-53.5808 19.2512 19.2512 0 0 0-7.68-26.0352 19.2768 19.2768 0 0 0-9.1392-2.3296 19.1744 19.1744 0 0 0-16.896 10.0608 130.0224 130.0224 0 0 1-110.08 56.32 138.8288 138.8288 0 0 1-107.264-53.3504 19.1488 19.1488 0 0 0-14.848-6.8864z" fill="#6468E7" p-id="18413"></path></svg>