<svg t="1713764822195" class="icon" viewBox="0 0 1241 1024" version="1.1" xmlns="http://www.w3.org/2000/svg" p-id="7340" width="200" height="200"><path d="M918.15668 888.004362m-40.156559 0a40.156559 40.156559 0 1 0 80.313117 0 40.156559 40.156559 0 1 0-80.313117 0Z" fill="#0F255E" p-id="7341"></path><path d="M26.305726 552.870039m-26.305726 0a26.305726 26.305726 0 1 0 52.611451 0 26.305726 26.305726 0 1 0-52.611451 0Z" fill="#0F255E" p-id="7342"></path><path d="M1189.589579 422.690821m-18.007634 0a18.007634 18.007634 0 1 0 36.015268 0 18.007634 18.007634 0 1 0-36.015268 0Z" fill="#0F255E" p-id="7343"></path><path d="M1016.492942 1000.175947m-19.388065 0a19.388064 19.388064 0 1 0 38.776129 0 19.388064 19.388064 0 1 0-38.776129 0Z" fill="#0F255E" p-id="7344"></path><path d="M1214.530385 331.287731m-26.305726 0a26.305726 26.305726 0 1 0 52.611451 0 26.305726 26.305726 0 1 0-52.611451 0Z" fill="#0F255E" p-id="7345"></path><path d="M66.477795 476.698213m-15.510452 0a15.510451 15.510451 0 1 0 31.020903 0 15.510451 15.510451 0 1 0-31.020903 0Z" fill="#0F255E" p-id="7346"></path><path d="M177.268949 847.847804m-15.510452 0a15.510451 15.510451 0 1 0 31.020903 0 15.510451 15.510451 0 1 0-31.020903 0Z" fill="#0F255E" p-id="7347"></path><path d="M430.694214 15.541472m-15.510452 0a15.510451 15.510451 0 1 0 31.020903 0 15.510451 15.510451 0 1 0-31.020903 0Z" fill="#0F255E" p-id="7348"></path><path d="M845.459194 841.379945l-143.673311 143.673312a124.083611 124.083611 0 0 1-175.485247 0l-104.897183-104.897183H256.201636a23.544865 23.544865 0 0 1 0-47.08973h118.112087l-44.313359-44.31336H134.320509a23.544865 23.544865 0 0 1 0-47.08973h148.574614l-131.466586-131.466586a124.083611 124.083611 0 0 1 0-175.469737l111.287488-111.287488h134.723781a23.544865 23.544865 0 1 0 0-47.089731h-87.63405L520.406665 65.764314a124.083611 124.083611 0 0 1 175.485247 0L898.210239 268.051621h202.752621a23.544865 23.544865 0 0 1 0 47.07422H945.29997l125.464041 125.479551a124.083611 124.083611 0 0 1 0 175.469737l-178.215086 178.215086h-112.869555a23.544865 23.544865 0 0 0 0 47.08973h65.779824z m50.548561-675.805877h321.28349a23.544865 23.544865 0 0 1 0 47.07422H896.007755a23.544865 23.544865 0 0 1 0-47.07422z" fill="#2C9CFA" fill-opacity=".3" p-id="7349"></path><path d="M522.733232 283.996365a211.872766 211.872766 0 0 1 221.132506 319.360194 224.343169 224.343169 0 0 1-221.132506-319.344684v-0.01551z" fill="#00F0FF" opacity=".8" p-id="7350"></path><path d="M719.033505 606.753347a174.492578 174.492578 0 1 0-130.396365 58.520934 24.925295 24.925295 0 1 1 0 49.866101 224.343169 224.343169 0 1 1 177.780794-87.494457l57.885005 59.017268c11.570797 11.787943 11.477734 30.695183-0.201636 42.390064l-0.201636 0.186125a29.780067 29.780067 0 0 1-42.343532-0.217146l-72.061558-73.488519a30.090276 30.090276 0 0 1 0.201636-42.343532l0.186126-0.201636c2.74535-2.714329 5.83193-4.792729 9.151166-6.235202z m-227.848531-177.517116h199.433384a24.925295 24.925295 0 1 1 0 49.866102H491.215995a24.925295 24.925295 0 0 1 0-49.866102z m0 99.716692h124.657498a24.925295 24.925295 0 1 1 0 49.850591h-124.641987a24.925295 24.925295 0 0 1 0-49.850591z" fill="#2C73D2" opacity=".8" p-id="7351"></path></svg>