<svg t="1713690425984" class="icon" viewBox="0 0 1024 1024" version="1.1" xmlns="http://www.w3.org/2000/svg" p-id="27766" width="200" height="200"><path d="M883.6096 51.2h-107.3664V27.648a27.648 27.648 0 0 0-27.648-27.648h-456.704a27.648 27.648 0 0 0-27.648 27.648V51.2H156.8768c-53.8112 0-97.4336 48.4864-97.4336 108.2368v756.2752c0 59.8016 43.6224 108.288 97.4336 108.288h726.7328c53.8112 0 97.4336-48.4864 97.4336-108.2368V159.4368c0-59.7504-43.6224-108.2368-97.4336-108.2368z m-557.9264 10.24h389.12v56.32h-389.12V61.44z m600.064 854.3232c0 25.8048-18.8928 46.7968-42.1376 46.7968H156.8768c-23.2448 0-42.1376-20.992-42.1376-46.7968V159.4368c0-25.8048 18.8928-46.7968 42.1376-46.7968h107.3664v38.912c0 15.2576 12.3904 27.648 27.648 27.648h456.704a27.648 27.648 0 0 0 27.648-27.648V112.64h107.3664c23.2448 0 42.1376 20.992 42.1376 46.7968v756.3264z" fill="#82529d" p-id="27767"></path><path d="M520.0384 210.3296c0.4608 0 0.4608 0 0 0 0.4608 0 0.4608 0 0 0z" fill="#82529d" p-id="27768"></path><path d="M750.6432 768h-460.8a25.6 25.6 0 0 1 0-51.2h460.8a25.6 25.6 0 0 1 0 51.2zM750.6432 896h-460.8a25.6 25.6 0 0 1 0-51.2h460.8a25.6 25.6 0 0 1 0 51.2zM333.0048 612.1472a24.064 24.064 0 0 0 22.016 34.0992h0.256c9.3696 0 17.92-5.5296 21.8112-14.1312 24.8832-54.1696 79.7184-92.0064 143.2064-92.0064s118.3232 37.7344 143.2064 92.0064a23.9104 23.9104 0 0 0 21.8112 14.1312h0.256a24.1664 24.1664 0 0 0 22.016-34.0992 206.7456 206.7456 0 0 0-97.6896-99.84 158.3104 158.3104 0 0 0-89.4976-288.768 158.5664 158.5664 0 0 0-158.3616 158.2592c0 54.1184 27.2896 101.9392 68.7616 130.5088-20.48 9.9328-39.424 23.296-55.9616 39.8848-17.664 17.6128-31.744 37.888-41.8304 59.9552zM410.112 381.7984a110.1824 110.1824 0 1 1 110.1312 110.1312A110.2848 110.2848 0 0 1 410.112 381.7984z" fill="#d4237a" p-id="27769" data-spm-anchor-id="a313x.search_index.0.i18.17f23a81z6TIGZ" class="selected"></path></svg>